<svg xmlns="http://www.w3.org/2000/svg" viewBox="0 0 100 100">
  <defs>
    <linearGradient id="green-gradient" x1="0%" y1="0%" x2="100%" y2="100%">
      <stop offset="0%" style="stop-color:#9ACD32;stop-opacity:1" />
      <stop offset="50%" style="stop-color:#7CB342;stop-opacity:1" />
      <stop offset="100%" style="stop-color:#2E7D32;stop-opacity:1" />
    </linearGradient>
    <linearGradient id="blue-gradient" x1="0%" y1="0%" x2="100%" y2="100%">
      <stop offset="0%" style="stop-color:#64B5F6;stop-opacity:1" />
      <stop offset="100%" style="stop-color:#1976D2;stop-opacity:1" />
    </linearGradient>
    <linearGradient id="orange-gradient" x1="0%" y1="0%" x2="100%" y2="100%">
      <stop offset="0%" style="stop-color:#FFB74D;stop-opacity:1" />
      <stop offset="100%" style="stop-color:#F57C00;stop-opacity:1" />
    </linearGradient>
  </defs>
  
  <!-- Main green shape -->
  <path d="M20 25 Q15 15 25 15 Q45 15 55 35 Q65 55 45 75 Q25 85 15 75 Q10 65 15 55 Q20 45 25 35 Z" 
        fill="url(#green-gradient)" opacity="0.9"/>
  
  <!-- Blue accent -->
  <ellipse cx="65" cy="30" rx="12" ry="8" fill="url(#blue-gradient)" opacity="0.8"/>
  
  <!-- Orange accent -->
  <path d="M35 60 Q45 50 55 60 Q65 70 55 80 Q45 85 35 80 Q25 70 35 60 Z" 
        fill="url(#orange-gradient)" opacity="0.8"/>
  
  <!-- Highlight -->
  <ellipse cx="35" cy="35" rx="8" ry="12" fill="rgba(255,255,255,0.3)"/>
</svg>